<svg width="49" height="48" viewBox="0 0 49 48" fill="none" xmlns="http://www.w3.org/2000/svg">
<path d="M45.0923 11.5176C44.8203 10.4616 43.4875 9.6 42.1278 9.6H25.4335C24.0762 9.6 22.175 8.8368 21.2146 7.9032L19.7544 6.492C18.794 5.5584 16.8952 4.8 15.5379 4.8H7.56316C6.20341 4.8 4.96861 5.8728 4.81916 7.1856L4.10376 14.4H45.5847L45.0923 11.5176V11.5176ZM47.5594 16.8H1.44061C1.24272 16.8001 1.04704 16.8407 0.866097 16.9192C0.68516 16.9978 0.522955 17.1124 0.389874 17.2559C0.256793 17.3993 0.155769 17.5685 0.0932745 17.7524C0.0307797 17.9363 0.00819166 18.131 0.0269572 18.324L2.28831 41.5296C2.33336 41.9867 2.55051 42.4109 2.89744 42.7197C3.24438 43.0285 3.69625 43.1997 4.16501 43.2H44.835C45.3038 43.1997 45.7556 43.0285 46.1026 42.7197C46.4495 42.4109 46.6667 41.9867 46.7117 41.5296L48.9731 18.324C48.9918 18.131 48.9692 17.9363 48.9067 17.7524C48.8442 17.5685 48.7432 17.3993 48.6101 17.2559C48.4771 17.1124 48.3149 16.9978 48.1339 16.9192C47.953 16.8407 47.7573 16.8001 47.5594 16.8Z" fill="black"/>
</svg>
