<svg width="51" height="52" viewBox="0 0 51 52" fill="none" xmlns="http://www.w3.org/2000/svg">
<path d="M38.25 39V45.5H12.75V39H9.5625V45.5C9.5625 46.362 9.89832 47.1886 10.4961 47.7981C11.0939 48.4076 11.9046 48.75 12.75 48.75H38.25C39.0954 48.75 39.9061 48.4076 40.5039 47.7981C41.1017 47.1886 41.4375 46.362 41.4375 45.5V39H38.25Z" fill="black"/>
<path d="M33.4687 34.125L31.2152 31.8273L27.0937 36.0295V22.75H23.9062V36.0295L19.7848 31.8273L17.5312 34.125L25.5 42.25L33.4687 34.125ZM44.625 6.5V3.25H35.0625V19.5H38.25V13H43.0312V9.75H38.25V6.5H44.625ZM27.0937 19.5H20.7187V3.25H27.0937C28.3614 3.25129 29.5768 3.76532 30.4732 4.67928C31.3696 5.59324 31.8737 6.83247 31.875 8.125V14.625C31.8737 15.9175 31.3696 17.1568 30.4732 18.0707C29.5768 18.9847 28.3614 19.4987 27.0937 19.5V19.5ZM23.9062 16.25H27.0937C27.5163 16.2496 27.9214 16.0782 28.2202 15.7736C28.519 15.4689 28.6871 15.0558 28.6875 14.625V8.125C28.6871 7.69416 28.519 7.28108 28.2202 6.97643C27.9214 6.67177 27.5163 6.50043 27.0937 6.5H23.9062V16.25ZM14.3437 3.25H6.375V19.5H9.5625V14.625H14.3437C15.1887 14.6237 15.9988 14.2809 16.5963 13.6717C17.1938 13.0625 17.53 12.2366 17.5312 11.375V6.5C17.5304 5.63831 17.1943 4.81216 16.5967 4.20285C15.9991 3.59355 15.1889 3.25086 14.3437 3.25V3.25ZM9.5625 11.375V6.5H14.3437L14.3453 11.375H9.5625Z" fill="black"/>
</svg>
